<?xml version="1.0" standalone="no"?>
<!DOCTYPE svg PUBLIC "-//W3C//DTD SVG 20010904//EN"
 "http://www.w3.org/TR/2001/REC-SVG-20010904/DTD/svg10.dtd">
<svg version="1.0" xmlns="http://www.w3.org/2000/svg"
 width="112.000000pt" height="112.000000pt" viewBox="0 0 112.000000 112.000000"
 preserveAspectRatio="xMidYMid meet">
<metadata>
Created by potrace 1.11, written by Peter Selinger 2001-2013
</metadata>
<g transform="translate(0.000000,112.000000) scale(0.100000,-0.100000)"
fill="#000000" stroke="none">
<path d="M422 1060 c-92 -24 -161 -61 -229 -124 -111 -101 -162 -208 -170
-357 -9 -168 35 -287 152 -404 81 -82 143 -118 251 -145 98 -25 180 -25 278 0
138 35 221 95 307 222 72 105 83 145 83 304 l1 140 -42 86 c-71 143 -190 238
-349 278 -96 25 -187 25 -282 0z"/>
</g>
</svg>
